<svg width="20" height="20" viewBox="0 0 20 20" fill="none" xmlns="http://www.w3.org/2000/svg">
<path d="M15.268 4.71199C16.6536 4.25524 17 2.71368 17 2H7.90722C5.02062 2.57095 3 4.14105 3 8.56588C4.15464 13.2762 7.61856 12.9907 10.0722 12.9907C11.3711 12.1343 11.067 12.4282 11.5 12L10.5 11C10.3563 10.8563 8.67698 10.3739 7.90722 10.2787C4.01031 8.42314 6.31959 4.71199 7.90722 4.71199C9.92784 4.28378 13.8825 4.71199 15.268 4.71199Z" fill="#F0F6FC" fill-opacity="0.6"/>
<path d="M13.3918 11.8488L9.20619 7.70946H13.1031L17 11.8488C15.0756 13.8471 10.9381 18.0436 9.78351 18.8429C8.5134 19.2997 7.3299 18.6526 6.89691 18.272L13.3918 11.8488Z" fill="#F0F6FC" fill-opacity="0.6"/>
</svg>
